<svg width="270" height="270" viewBox="0 0 270 270" fill="none" xmlns="http://www.w3.org/2000/svg">
<path d="M259.606 178.38L260.4 179.633C263.562 185.326 261.884 192.4 256.718 196.109L255.465 196.902L141.168 260.402C137.812 262.266 133.822 262.5 130.307 261.102L128.833 260.402L14.5353 196.902C8.40316 193.495 6.19386 185.765 9.60102 179.633C12.7636 173.94 19.6574 171.629 25.5342 174.054L26.8701 174.699L134.99 234.76L243.133 174.699C248.826 171.536 255.9 173.214 259.608 178.38L259.606 178.38ZM259.606 127.581L260.4 128.833C263.562 134.526 261.884 141.6 256.718 145.309L255.465 146.103L141.168 209.602C137.812 211.466 133.822 211.7 130.307 210.302L128.833 209.602L14.5353 146.103C8.40316 142.696 6.19386 134.965 9.60102 128.833C12.7636 123.141 19.6574 120.829 25.5342 123.254L26.8701 123.899L134.99 183.961L243.133 123.899C248.826 120.736 255.9 122.414 259.608 127.581L259.606 127.581ZM128.835 9.59856C132.671 7.46715 137.334 7.46715 141.169 9.59856L255.467 73.0982C264.177 77.9368 264.177 90.463 255.467 95.3017L141.169 158.801C137.334 160.933 132.671 160.933 128.835 158.801L14.5371 95.3017C5.82734 90.463 5.82734 77.9368 14.5371 73.0982L128.835 9.59856ZM135.002 35.2288L46.8525 84.2006L134.989 133.159L223.139 84.2006L135.002 35.2288Z" fill="url(#paint0_linear_1393_763)"/>
<defs>
<linearGradient id="paint0_linear_1393_763" x1="8" y1="134.865" x2="709.657" y2="134.865" gradientUnits="userSpaceOnUse">
<stop stop-color="#374DC1"/>
<stop offset="1" stop-color="#6477DB" stop-opacity="0.45"/>
<stop offset="1" stop-color="#5F73D8"/>
</linearGradient>
</defs>
</svg>
